<svg width="32" height="32" viewBox="0 0 32 32" fill="none" xmlns="http://www.w3.org/2000/svg">
<path d="M6.6439 9.5959C8.2551 9.5959 9.56123 8.28976 9.56123 6.67856C9.56123 5.06736 8.2551 3.76123 6.6439 3.76123C5.0327 3.76123 3.72656 5.06736 3.72656 6.67856C3.72656 8.28976 5.0327 9.5959 6.6439 9.5959Z" fill="white"/>
<path d="M12.316 11.8067V27.9921H17.3414V19.9881C17.3414 17.8761 17.7387 15.8307 20.3574 15.8307C22.94 15.8307 22.972 18.2454 22.972 20.1214V27.9934H28V19.1174C28 14.7574 27.0614 11.4067 21.9654 11.4067C19.5187 11.4067 17.8787 12.7494 17.208 14.0201H17.14V11.8067H12.316ZM4.12671 11.8067H9.16004V27.9921H4.12671V11.8067Z" fill="white"/>
</svg>
