<svg width="32" height="32" viewBox="0 0 32 32" fill="none" xmlns="http://www.w3.org/2000/svg">
<mask id="mask0" mask-type="alpha" maskUnits="userSpaceOnUse" x="2" y="4" width="9" height="25">
<path d="M2.28589 4.00146H10.7569V28.0001H2.28589V4.00146Z" fill="#CCCCCC"/>
</mask>
<g mask="url(#mask0)">
<path fill-rule="evenodd" clip-rule="evenodd" d="M10.6756 25.5802C10.7529 25.4437 10.7764 25.282 10.7412 25.1282C10.706 24.9745 10.6147 24.8404 10.4862 24.7535C7.70635 22.8851 5.86903 19.6637 5.86903 15.9998C5.86903 12.3364 7.70635 9.11507 10.4862 7.24665C10.6147 7.15971 10.7059 7.02564 10.7411 6.87191C10.7763 6.71819 10.7529 6.55647 10.6756 6.41992L9.48891 4.31174C9.44747 4.23853 9.39197 4.17471 9.32577 4.12416C9.25957 4.07362 9.18405 4.03739 9.10378 4.01767C9.02352 3.99796 8.9402 3.99517 8.85885 4.00948C8.77751 4.0238 8.69985 4.0549 8.63058 4.10092C4.81537 6.61469 2.28589 11.0032 2.28589 16.0001C2.28589 20.997 4.81514 25.3852 8.63058 27.8992C8.69985 27.9452 8.77749 27.9763 8.85882 27.9906C8.94015 28.0049 9.02346 28.0022 9.1037 27.9825C9.18395 27.9628 9.25947 27.9266 9.32569 27.8761C9.3919 27.8256 9.44743 27.7618 9.48891 27.6886L10.6756 25.5802Z" fill="white"/>
</g>
<path fill-rule="evenodd" clip-rule="evenodd" d="M22.6458 4.31107L21.4594 6.41973C21.3822 6.5562 21.3587 6.7178 21.3939 6.87143C21.4291 7.02505 21.5202 7.15906 21.6486 7.24598C24.4284 9.1144 26.2655 12.336 26.2655 15.9996C26.2655 19.6633 24.4284 22.8846 21.6486 24.7533C21.5202 24.8402 21.4291 24.9742 21.3939 25.1279C21.3587 25.2815 21.3822 25.4431 21.4594 25.5796L22.6458 27.688C22.6873 27.7612 22.7428 27.825 22.809 27.8755C22.8752 27.926 22.9507 27.9622 23.031 27.9819C23.1112 28.0016 23.1945 28.0044 23.2759 27.9902C23.3572 27.9759 23.4349 27.9448 23.5041 27.8988C27.3198 25.3848 29.8486 20.9965 29.8486 15.9996C29.8486 11.0028 27.3193 6.6145 23.5041 4.10026C23.4349 4.05428 23.3572 4.02322 23.2759 4.00895C23.1946 3.99468 23.1113 3.9975 23.031 4.01723C22.9508 4.03697 22.8753 4.07321 22.8091 4.12376C22.7429 4.17431 22.6875 4.23812 22.646 4.31132" fill="white"/>
</svg>
