<svg xmlns="http://www.w3.org/2000/svg" width="38" height="19" viewBox="0 0 38 19">
    <g fill="none" fill-rule="evenodd">
        <path fill="#0065C7" fill-rule="nonzero" d="M37.667 9.459a2.299 2.299 0 0 0-2.299-2.289H20.923l-2.381-.217a7.712 7.712 0 0 1-5.903-6.62H7.813A7.715 7.715 0 0 1 .167 7.19v4.589a7.714 7.714 0 0 1 7.65 6.889h4.818a7.712 7.712 0 0 1 5.967-6.69l2.19-.21h5.887a4.12 4.12 0 0 0 1.586 2.228 4.053 4.053 0 0 0 2.907.67 3.785 3.785 0 0 0 2.696-1.528c.309-.407.545-.864.697-1.352h.803a2.304 2.304 0 0 0 2.299-2.319V9.46zm-27.443 2.955A12.489 12.489 0 0 0 7.292 9.5a12.368 12.368 0 0 0 2.928-2.937 12.42 12.42 0 0 0 2.925 2.933c-1.132.8-2.12 1.788-2.92 2.918z"/>
        <path d="M-4-13h45v45H-4z"/>
    </g>
</svg>
